HIERARCHY
ROOT Hips
{
	OFFSET -3.958830 18.904000 13.208200
	CHANNELS 6 Xposition Yposition Zposition Zrotation Yrotation Xrotation 
	JOINT LHipJoint
	{
		OFFSET 0.000000 0.000000 0.000000
		CHANNELS 3 Zrotation Yrotation Xrotation
		JOINT LeftUpLeg
		{
			OFFSET 1.800000 -1.400000 0.085000
			CHANNELS 3 Zrotation Yrotation Xrotation
			JOINT LeftLeg
			{
				OFFSET 2.215000 -6.000000 0.000000
				CHANNELS 3 Zrotation Yrotation Xrotation
				JOINT LeftFoot
				{
					OFFSET 2.500000 -6.900000 0.000000
					CHANNELS 3 Zrotation Yrotation Xrotation
					JOINT LeftToeBase
					{
						OFFSET 0.200000 -0.500000 1.950000
						CHANNELS 3 Zrotation Yrotation Xrotation
						End Site
						{
							OFFSET 0.000000 0.000000 0.000000
						}
					}
				}
			}
		}
	}
	JOINT RHipJoint
	{
		OFFSET 0.000000 0.000000 0.000000
		CHANNELS 3 Zrotation Yrotation Xrotation
		JOINT RightUpLeg
		{
			OFFSET -1.800000 -1.400000 0.085000
			CHANNELS 3 Zrotation Yrotation Xrotation
			JOINT RightLeg
			{
				OFFSET -2.215000 -6.000000 0.000000
				CHANNELS 3 Zrotation Yrotation Xrotation
				JOINT RightFoot
				{
					OFFSET -2.500000 -6.900000 0.000000
					CHANNELS 3 Zrotation Yrotation Xrotation
					JOINT RightToeBase
					{
						OFFSET -0.200000 -0.500000 1.950000
						CHANNELS 3 Zrotation Yrotation Xrotation
						End Site
						{
							OFFSET 0.000000 0.000000 0.000000
						}
					}
				}
			}
		}
	}
	JOINT LowerBack
	{
		OFFSET 0.000000 0.000000 0.000000
		CHANNELS 3 Zrotation Yrotation Xrotation
		JOINT Spine
		{
			OFFSET -0.087000 1.940000 -0.288900
			CHANNELS 3 Zrotation Yrotation Xrotation
			JOINT Spine1
			{
				OFFSET 0.000000 1.950000 0.060000
				CHANNELS 3 Zrotation Yrotation Xrotation
				JOINT Neck
				{
					OFFSET 0.000000 0.000000 0.000000
					CHANNELS 3 Zrotation Yrotation Xrotation
					JOINT Neck1
					{
						OFFSET 0.000000 1.600000 0.340000
						CHANNELS 3 Zrotation Yrotation Xrotation
						JOINT Head
						{
							OFFSET 0.000000 1.667000 -0.240000
							CHANNELS 3 Zrotation Yrotation Xrotation
							End Site
							{
								OFFSET 0.000000 0.000000 0.000000
							}
						}
					}
				}
				JOINT LeftShoulder
				{
					OFFSET 0.000000 0.000000 0.000000
					CHANNELS 3 Zrotation Yrotation Xrotation
					JOINT LeftArm
					{
						OFFSET 2.700000 1.550000 -0.730000
						CHANNELS 3 Zrotation Yrotation Xrotation
						JOINT LeftForeArm
						{
							OFFSET 5.450000 0.000000 0.000000
							CHANNELS 3 Zrotation Yrotation Xrotation
							JOINT LeftHand
							{
								OFFSET 3.450000 0.000000 0.000000
								CHANNELS 3 Zrotation Yrotation Xrotation
								JOINT LeftHandIndex1
								{
									OFFSET 0.750000 0.000000 0.000000
									CHANNELS 3 Zrotation Yrotation Xrotation
									End Site
									{
										OFFSET 0.000000 0.000000 0.000000
									}
								}
							}
						}
					}
				}
				JOINT RightShoulder
				{
					OFFSET 0.000000 0.000000 0.000000
					CHANNELS 3 Zrotation Yrotation Xrotation
					JOINT RightArm
					{
						OFFSET -2.700000 1.550000 -0.730000
						CHANNELS 3 Zrotation Yrotation Xrotation
						JOINT RightForeArm
						{
							OFFSET -5.450000 0.000000 0.000000
							CHANNELS 3 Zrotation Yrotation Xrotation
							JOINT RightHand
							{
								OFFSET -3.450000 0.000000 0.000000
								CHANNELS 3 Zrotation Yrotation Xrotation
								JOINT RightHandIndex1
								{
									OFFSET -0.750000 0.000000 0.000000
									CHANNELS 3 Zrotation Yrotation Xrotation
									End Site
									{
										OFFSET 0.000000 0.000000 0.000000
									}
								}
							}
						}
					}
				}
			}
		}
	}
}
MOTION
Frames: 13
Frame Time: 0.016667
-5.153950 15.892190 -1.980650 -0.314626 -3.122230 -4.890912 -15.002802 13.691359 2.696758 21.329471 -0.976219 -22.710575 7.098502 8.284596 45.756629 0.432010 8.171048 1.583267 0.003520 -0.059450 -0.028760 18.424675 -11.712349 1.700218 -21.903848 0.098960 -22.163894 -6.119632 -7.011874 44.740824 -0.402621 -6.649086 1.919034 0.047990 0.271110 0.061260 -3.999521 -1.240427 -7.025684 10.805267 -0.325141 10.597672 -4.265435 0.713918 5.203369 0.878805 -5.474492 -4.957169 -11.394591 5.786598 32.347165 -2.206390 4.770930 -1.023840 -19.053491 11.098915 0.377651 -54.624247 -2.047508 -2.546743 143.475453 -83.781764 -147.439168 -3.786690 3.615064 0.036270 0.200340 -0.148230 0.064480 16.535071 -7.282969 1.015552 52.698909 -1.178811 -8.568350 39.131202 53.219656 15.657088 2.292710 -1.792906 -0.150260 0.133800 0.081580 -0.035290 
-5.161200 15.871950 -1.961610 -0.225090 -3.645366 -4.752040 -15.029021 13.690735 2.694786 20.886722 -1.233753 -22.824197 7.669646 8.073799 46.727860 0.527549 8.227999 1.564934 0.001680 -0.044810 -0.061020 18.406904 -11.623692 1.821144 -21.344616 0.469602 -23.878830 -7.082204 -6.770926 47.315394 -0.472959 -6.952027 1.824440 0.026630 0.261320 0.061310 -3.922417 -1.331544 -7.121919 9.980862 -0.140405 10.513566 -3.121124 0.947443 4.934933 0.680411 -5.285175 -5.576116 -11.438634 5.586002 33.801845 -0.766690 4.078040 0.409700 -19.040987 8.898710 1.362608 -57.789394 -3.066968 -4.901674 167.698835 -88.658783 -173.788897 -3.620838 3.583850 0.011030 0.183920 -0.140560 0.078280 17.084947 -4.858477 0.890600 52.302631 0.522401 -9.098711 24.047754 43.267991 6.941278 2.340025 -1.602149 -0.109000 0.100230 0.066800 -0.003760 
-5.152930 15.966750 -1.956040 -0.228445 -4.345002 -4.966758 -14.999590 13.821357 2.595956 20.260516 -1.335138 -21.401640 7.373084 7.803157 45.220810 0.503838 7.931292 1.673780 -0.014050 -0.051950 -0.092960 18.394072 -11.716225 1.852951 -20.304028 0.522559 -24.038485 -8.075278 -6.013424 46.916529 -0.448968 -6.810553 1.888998 0.013940 0.274300 0.050970 -3.922509 -1.350432 -7.075046 9.822511 0.114267 10.260610 -2.602238 1.274043 5.287714 0.486678 -5.125186 -6.069430 -11.746150 5.208597 35.730535 0.245510 3.242860 1.866680 -20.017400 6.367206 2.071499 -58.546827 -4.572856 -0.266071 117.456906 -88.270070 -126.489905 -4.017012 3.157513 -0.002910 0.183360 -0.147940 0.085920 18.523484 -2.349901 1.162907 51.133694 0.917461 -9.002392 14.226778 35.357648 2.727924 2.384270 -1.445941 -0.101670 0.100640 0.070380 0.015070 
-5.138920 16.132250 -1.913890 -0.132610 -4.621429 -4.985916 -14.949807 14.002978 2.425689 19.643243 -1.265482 -18.892020 6.405250 7.460637 41.363915 0.413944 7.314657 1.912044 -0.066070 -0.109720 -0.137990 18.379118 -11.959455 1.779940 -18.953690 0.100213 -22.798072 -9.117876 -4.994760 43.786224 -0.331908 -6.318118 2.079378 -0.018250 0.318880 0.055840 -3.947229 -1.239196 -6.872014 9.607480 0.591228 9.096671 -2.938007 1.744638 5.869570 0.764830 -4.065932 -6.369976 -10.051692 4.318353 36.756031 0.602480 3.074830 4.370720 -19.486403 5.534785 2.093042 -58.921835 -6.503334 -3.300142 -111.427200 -81.747507 96.751310 -3.935987 1.341663 -0.041410 0.223840 -0.185990 0.087540 17.587805 -2.556331 1.596494 51.969385 -1.102136 -9.537352 10.542899 32.136008 1.419794 2.400650 -1.416483 -0.109550 0.085180 0.089270 0.028120 
-5.122340 16.375840 -1.860550 0.152247 -4.678919 -5.199223 -14.918761 14.279354 2.256282 18.495685 -1.090638 -15.577246 5.150615 6.951722 36.034664 0.292990 6.510674 2.230008 -0.108430 -0.151450 -0.177600 18.330316 -12.192524 1.631153 -17.810609 -0.648312 -19.668691 -9.217097 -4.301113 38.343878 -0.175168 -5.586803 2.361803 -0.034580 0.366950 0.063700 -3.901974 -1.361760 -6.572789 9.274362 0.611799 7.352627 -3.772710 1.720447 7.222928 0.903001 -3.317570 -6.645613 -9.189372 3.845950 37.618257 0.775190 3.129780 6.504380 -19.039716 4.707462 2.717040 -58.932219 -9.046945 0.952898 -138.133115 -78.107708 123.673869 -3.662437 2.927858 -0.087550 0.270140 -0.225530 0.087540 16.809693 -2.796740 1.825873 52.922019 -2.473067 -9.910293 7.577591 30.571278 0.635295 2.394318 -1.410939 -0.116300 0.076540 0.110370 0.041720 
-5.114400 16.657370 -1.814500 0.313724 -4.569955 -4.746856 -14.913513 14.440278 2.145026 17.006330 -0.815351 -12.664565 3.847809 6.244973 29.151876 0.153839 5.568856 2.621397 -0.172610 -0.230830 -0.231610 18.290376 -12.274186 1.582489 -16.275967 -1.066145 -16.775086 -8.880674 -3.688813 31.996348 -0.014109 -4.821911 2.673272 -0.066760 0.427990 0.075700 -3.843267 -1.500441 -6.300720 8.841918 0.751999 5.440577 -3.998560 1.809931 8.268180 0.833347 -3.033103 -6.910177 -8.963453 3.024823 37.170147 0.381450 2.582390 8.638890 -17.202628 4.955118 3.102417 -59.957081 -10.152674 4.922493 -142.911250 -74.247596 125.999194 -3.726509 3.194355 -0.135000 0.323890 -0.282110 0.082180 15.144378 -3.545555 2.172279 53.812340 -4.742156 -10.694087 6.991127 29.686175 0.401759 2.383608 -1.426582 -0.133070 0.066420 0.147860 0.054190 
-5.092930 16.975780 -1.782810 0.656265 -4.263062 -4.405614 -14.927043 14.463788 2.124348 14.848630 -0.687537 -10.314449 2.955940 5.617760 24.000685 0.083620 4.905772 2.916685 -0.174250 -0.226830 -0.231830 18.271414 -12.219368 1.621671 -15.158504 -1.382267 -13.991905 -7.541749 -3.568907 26.117284 0.064894 -4.256009 2.920485 -0.060080 0.443090 0.066640 -3.803703 -1.639609 -6.149211 8.486593 0.580003 4.099535 -4.354426 1.594188 8.933354 0.776040 -2.660592 -6.890496 -8.664103 2.721347 37.736599 0.221730 2.632690 9.483290 -15.512658 5.575488 3.155883 -59.753830 -10.948782 8.141323 -143.822780 -70.873944 124.627728 -3.743146 3.333619 -0.153660 0.339300 -0.293310 0.094220 13.572801 -4.752325 2.115557 54.532791 -6.118262 -11.123405 6.158457 28.369926 0.128421 2.391029 -1.425041 -0.140400 0.073830 0.134420 0.060050 
-5.087040 17.300500 -1.775660 0.827213 -5.112027 -4.079686 -14.959542 14.399689 2.201473 13.187982 -0.478082 -8.353474 1.097763 5.589214 19.811631 0.068342 4.578676 3.071531 -0.167330 -0.212170 -0.234980 18.271972 -11.972625 1.734620 -13.656651 -1.307228 -12.578974 -5.488338 -3.646755 21.640749 0.106790 -3.867220 3.090659 -0.051910 0.443570 0.060940 -3.752876 -1.930088 -6.124328 8.611041 0.324179 3.398227 -4.725578 1.393407 9.587402 0.522180 -3.522739 -7.191221 -10.843430 3.605229 37.991878 0.021340 3.040330 9.880420 -13.435216 6.423431 3.199812 -59.628549 -11.550752 10.601123 -144.620898 -68.053824 123.451118 -3.739550 3.458080 -0.159200 0.339680 -0.293620 0.103240 11.893294 -5.217680 2.536998 54.306021 -7.982932 -12.044458 8.692355 29.945712 0.670160 2.362355 -1.468514 -0.139390 0.074240 0.125260 0.065130 
-5.071270 17.611130 -1.798390 0.528601 -6.121748 -3.790966 -14.960832 14.281004 2.295477 11.587299 -0.398043 -7.189888 -0.407672 5.569317 17.100158 0.051174 4.388235 3.142823 -0.110640 -0.142560 -0.183460 18.310940 -11.753903 1.876799 -11.592237 -1.183900 -11.801752 -3.110402 -3.971449 19.340201 0.084084 -3.683820 3.159679 -0.016680 0.397250 0.066110 -3.802739 -2.076891 -6.179408 9.721313 -0.119953 3.566915 -5.609072 1.036280 10.153529 0.585783 -3.994788 -7.368908 -12.149642 4.181272 38.237445 -0.358190 3.584630 8.384490 -12.411667 6.604710 2.943797 -57.894220 -12.566407 12.443332 -147.581037 -65.556585 125.846457 -3.716431 3.551224 -0.136280 0.312900 -0.251510 0.104380 10.584733 -5.455989 2.975863 53.326621 -9.728039 -12.836529 11.550391 31.904040 1.392569 2.319125 -1.516378 -0.120340 0.074640 0.096990 0.053920 
-5.062860 17.896840 -1.837870 0.560492 -7.703380 -3.532309 -14.993280 14.213222 2.443148 9.743994 -0.337141 -6.856265 -2.629428 5.990447 16.165750 0.057870 4.421113 3.130906 -0.089900 -0.115610 -0.168510 18.311393 -11.547891 1.963733 -9.544742 -0.910959 -12.180985 -1.221384 -4.386938 19.796224 0.071123 -3.652573 3.166973 0.000520 0.383810 0.062620 -3.739397 -2.331800 -6.267624 9.778438 -0.486573 4.224197 -5.634088 0.880468 10.579647 0.384891 -4.838738 -7.822762 -14.149237 5.251845 38.046768 -0.380290 4.137570 7.542500 -10.923687 6.644461 3.181888 -56.823191 -12.866160 13.337213 -151.862174 -63.526550 130.289737 -3.706697 3.616107 -0.116800 0.299540 -0.235860 0.103100 9.443623 -4.948515 3.299890 51.303029 -10.498023 -12.713959 14.811483 30.722163 1.878819 2.310629 -1.520215 -0.121400 0.087190 0.094850 0.046510 
-5.068920 18.140150 -1.859660 0.839218 -9.402625 -3.267066 -15.058098 14.113678 2.612650 8.075519 -0.313860 -6.769845 -5.885814 6.885016 16.165160 0.093196 4.694720 3.045924 -0.096920 -0.124560 -0.166500 18.289662 -11.318756 2.029441 -7.382225 -0.570292 -12.519978 0.412103 -4.853290 21.079416 0.061161 -3.728763 3.143894 0.010470 0.401870 0.053880 -3.598802 -2.590410 -6.355294 8.940580 -0.708654 4.647235 -5.564649 0.875575 10.980379 0.215113 -5.429549 -8.085224 -15.372000 5.900084 37.152399 -0.745150 4.638690 7.031230 -9.036413 7.242784 3.270538 -55.256263 -13.295894 14.009057 -155.842265 -62.193000 135.401908 -3.728795 3.646095 -0.111740 0.312100 -0.248700 0.096960 7.893496 -5.059810 3.553982 49.474557 -11.435947 -12.829874 18.407412 31.793933 2.744453 2.261757 -1.561211 -0.144770 0.115110 0.109300 0.036170 
-5.052600 18.353520 -1.857650 1.032261 -9.861263 -3.019889 -15.098630 13.960678 2.781410 6.122122 -0.373187 -6.531059 -8.804939 7.537688 15.750293 0.144533 4.880119 2.978036 -0.062150 -0.085320 -0.134360 18.291718 -11.133754 2.085675 -5.844588 -0.393349 -12.639047 2.512547 -5.669386 22.702974 0.003988 -3.931582 3.060625 0.034210 0.375180 0.051920 -3.553708 -2.706848 -6.465688 8.769146 -1.180712 5.097260 -6.164468 0.574173 11.359893 0.304697 -5.682455 -8.269255 -15.787988 5.745680 36.445117 -0.891490 4.366450 5.706870 -7.715651 7.554824 3.181968 -53.124081 -13.636485 13.888683 -159.151278 -61.618920 140.282544 -3.716829 3.668006 -0.098640 0.293240 -0.229970 0.094390 6.379139 -5.260169 3.908912 48.063143 -12.701103 -13.035513 22.516995 32.943531 3.754767 2.219296 -1.623762 -0.136830 0.121110 0.095120 0.028530 
-5.038600 18.548190 -1.857030 1.181054 -10.339443 -3.220673 -15.148358 13.901968 2.909020 4.274000 -0.492484 -6.311729 -10.604344 8.163337 16.692132 0.208463 5.122624 2.897535 -0.049310 -0.064320 -0.133640 18.274122 -10.983840 2.128943 -4.109313 -0.140484 -12.965277 3.111367 -6.220729 25.459455 -0.056647 -4.203007 2.960923 0.050180 0.373560 0.042720 -3.457642 -2.907720 -6.569079 8.227241 -1.511563 5.760417 -6.037892 0.431289 11.724558 0.241210 -5.989859 -8.603256 -16.575195 6.125135 36.240107 -0.770330 4.427410 5.406250 -6.901095 7.241414 3.192749 -50.906246 -14.469575 13.797704 -161.989290 -61.674017 144.948216 -3.714100 3.665981 -0.093120 0.286600 -0.225890 0.103950 5.722294 -4.713954 4.375414 45.532222 -13.939118 -12.918952 25.644305 34.253111 4.688970 2.177926 -1.686813 -0.141850 0.132620 0.086630 0.030450 
